<svg xmlns="http://www.w3.org/2000/svg" viewBox="0 0 107.76 131.39"><title>Asset 2</title><g id="Layer_2" data-name="Layer 2"><g id="Layer_1-2" data-name="Layer 1"><line x1="107.41" y1="120.6" x2="0.35" y2="14.37" style="fill:none;stroke:#ff00cf;stroke-miterlimit:10;opacity:0.55"/><polyline points="37.55 131.39 37.55 53.98 37.55 0" style="fill:none;stroke:#4d4d4d;stroke-miterlimit:10;opacity:0.55"/><path d="M100.22,68.33a14.78,14.78,0,0,0-7.67-5.86,16,16,0,0,0,5.07-3.78q3.07-3.7,3.07-9.79a16.85,16.85,0,0,0-3-10.14q-5.07-6.9-17.22-7.08H48.31V61.32L61.56,74.57v-5.7H77.92A16.83,16.83,0,0,1,84.56,70c2.82,1.29,4.23,3.67,4.23,7.12q0,6.13-4.37,8.3a15.65,15.65,0,0,1-6.72,1.17H73.58L84.7,97.71c1-.13,2-.28,2.94-.48a18.28,18.28,0,0,0,12.21-8.57,19.34,19.34,0,0,0,3-10.59A17.56,17.56,0,0,0,100.22,68.33ZM84.74,56.23a13.33,13.33,0,0,1-7,1.64H61.56V43.22H76a25,25,0,0,1,7.85,1c2.38,1,3.57,3,3.57,6.13C87.44,53.19,86.54,55.13,84.74,56.23Z"/><path d="M18.19,64.42q3.9,2.7,14.29,5l5.07,1.11V57.62L36,57.27c-4.41-1-7.29-1.93-8.65-2.7a5.58,5.58,0,0,1-3.17-5.22,6.72,6.72,0,0,1,3.21-5.92A15.5,15.5,0,0,1,36,41.31c.52,0,1,0,1.52,0V30H37Q24.5,30,18.05,35.79a18.73,18.73,0,0,0-6.44,14.54Q11.61,59.92,18.19,64.42Z"/><path d="M37.55,87.63q-8.16,0-11.53-4a13.27,13.27,0,0,1-2.48-6.68h-13q0,10.17,7.37,16,7.2,5.67,19.63,5.8Z"/></g></g></svg>